HIERARCHY
ROOT root
{
	OFFSET 0.000000 0.000000 0.000000
	CHANNELS 6 Xposition Yposition Zposition Zrotation Yrotation Xrotation
	JOINT lhip
	{
		OFFSET 0.058581 -0.082280 -0.017664
		CHANNELS 3 Zrotation Yrotation Xrotation
		JOINT lknee
		{
			OFFSET 0.043451 -0.386469 0.008037
			CHANNELS 3 Zrotation Yrotation Xrotation
			JOINT lankle
			{
				OFFSET -0.014790 -0.426874 -0.037428
				CHANNELS 3 Zrotation Yrotation Xrotation
				JOINT ltoe
				{
					OFFSET 0.041054 -0.060286 0.122042
					CHANNELS 3 Zrotation Yrotation Xrotation
					End Site
					{
						OFFSET 0.000000 0.000000 0.000000
					}
				}
			}
		}
	}
	JOINT rhip
	{
		OFFSET -0.060310 -0.090513 -0.013543
		CHANNELS 3 Zrotation Yrotation Xrotation
		JOINT rknee
		{
			OFFSET -0.043257 -0.383688 -0.004843
			CHANNELS 3 Zrotation Yrotation Xrotation
			JOINT rankle
			{
				OFFSET 0.019056 -0.420046 -0.034562
				CHANNELS 3 Zrotation Yrotation Xrotation
				JOINT rtoe
				{
					OFFSET -0.034840 -0.062106 0.130323
					CHANNELS 3 Zrotation Yrotation Xrotation
					End Site
					{
						OFFSET 0.000000 0.000000 0.000000
					}
				}
			}
		}
	}
	JOINT lowerback
	{
		OFFSET 0.004439 0.124404 -0.038385
		CHANNELS 3 Zrotation Yrotation Xrotation
		JOINT upperback
		{
			OFFSET 0.004488 0.137956 0.026820
			CHANNELS 3 Zrotation Yrotation Xrotation
			JOINT chest
			{
				OFFSET -0.002265 0.056032 0.002855
				CHANNELS 3 Zrotation Yrotation Xrotation
				JOINT lowerneck
				{
					OFFSET -0.013390 0.211636 -0.033468
					CHANNELS 3 Zrotation Yrotation Xrotation
					JOINT upperneck
					{
						OFFSET 0.010113 0.088937 0.050410
						CHANNELS 3 Zrotation Yrotation Xrotation
						End Site
						{
							OFFSET 0.000000 0.000000 0.000000
						}
					}
				}
				JOINT lclavicle
				{
					OFFSET 0.071702 0.114000 -0.018898
					CHANNELS 3 Zrotation Yrotation Xrotation
					JOINT lshoulder
					{
						OFFSET 0.122921 0.045205 -0.019046
						CHANNELS 3 Zrotation Yrotation Xrotation
						JOINT lelbow
						{
							OFFSET 0.255332 -0.015649 -0.022946
							CHANNELS 3 Zrotation Yrotation Xrotation
							JOINT lwrist
							{
								OFFSET 0.265709 0.012698 -0.007375
								CHANNELS 3 Zrotation Yrotation Xrotation
								End Site
								{
									OFFSET 0.000000 0.000000 0.000000
								}
							}
						}
					}
				}
				JOINT rclavicle
				{
					OFFSET -0.082954 0.112472 -0.023707
					CHANNELS 3 Zrotation Yrotation Xrotation
					JOINT rshoulder
					{
						OFFSET -0.113228 0.046853 -0.008472
						CHANNELS 3 Zrotation Yrotation Xrotation
						JOINT relbow
						{
							OFFSET -0.260127 -0.014369 -0.031269
							CHANNELS 3 Zrotation Yrotation Xrotation
							JOINT rwrist
							{
								OFFSET -0.269108 0.006794 -0.006027
								CHANNELS 3 Zrotation Yrotation Xrotation
								End Site
								{
									OFFSET 0.000000 0.000000 0.000000
								}
							}
						}
					}
				}
			}
		}
	}
}
MOTION
Frames: 17
Frame Time: 0.033333
1.087689 0.766762 0.890826 -74.005324 3.058839 86.070415 0.227145 -9.550846 -21.017832 -12.917299 -9.910967 59.147386 8.315473 10.168170 -33.971061 0.000000 -0.000000 0.000000 3.360240 0.192202 -18.740870 0.334684 -9.871173 59.801223 5.309290 -11.951458 -30.205574 0.000000 -0.000000 0.000000 -0.637427 2.041552 23.692019 2.391429 -1.612183 -2.834066 0.564806 -1.263917 3.661453 5.463672 10.793721 3.232751 9.206510 7.074830 -4.586898 -25.792068 -0.954668 3.755596 -59.074516 -5.217213 8.964273 8.933572 -30.804037 7.311273 2.087142 1.061781 -11.839346 25.063934 2.064787 1.215408 58.827157 2.281882 9.993523 -12.524095 25.661791 1.780347 7.613803 -0.877737 -9.406149 
1.078810 0.764692 0.906662 -69.774800 2.276486 86.111328 -1.346180 -9.820869 -17.842214 -12.370587 -12.696184 54.120518 8.873883 9.901138 -31.607373 0.000000 -0.000000 0.000000 3.374639 -1.326969 -15.366266 -0.391465 -10.291487 54.669063 4.743822 -13.598265 -28.878090 0.000000 -0.000000 0.000000 -0.790584 2.981361 21.632022 2.039594 -1.406458 -3.082841 0.395333 -1.225498 4.236563 4.329218 10.757038 2.720958 9.827315 5.941152 -4.083873 -24.386845 -0.087055 3.603864 -57.899541 -5.253053 9.634774 5.519623 -33.132430 11.242691 2.290496 -0.265299 -10.820434 24.125177 0.219167 0.960445 58.738145 -1.504752 10.495329 -11.264965 29.425848 4.040437 7.443231 -0.271014 -9.040695 
1.070969 0.760190 0.945143 -65.166385 1.105384 86.963358 -2.576315 -10.562890 -13.357305 -11.138720 -16.642587 43.875306 7.323649 7.157729 -23.218204 0.000000 -0.000000 0.000000 2.576894 -2.140376 -11.431419 -0.283054 -10.783418 45.405922 4.199139 -14.460854 -20.938971 0.000000 -0.000000 0.000000 -1.141946 3.737383 18.711972 1.594469 -1.586412 -3.335763 0.039082 -1.556200 4.600905 2.838857 10.702371 1.852751 10.815427 4.862784 -3.317100 -23.206028 1.020786 3.614047 -56.946898 -5.794409 10.575882 3.204279 -33.877301 13.730867 3.509216 -2.252992 -9.420478 23.545133 -2.699130 0.417253 59.110700 -4.992326 11.281929 -11.447416 32.714220 5.149917 5.339723 0.825933 -7.684140 
1.062056 0.751593 1.002999 -59.886712 0.312692 87.823747 -2.350806 -10.519090 -7.878830 -9.038832 -20.432480 29.744754 2.594347 1.907254 -6.449023 0.000000 -0.000000 0.000000 1.568064 -4.952434 -6.154479 -0.064237 -10.543690 32.393207 3.901338 -12.487050 -4.727288 0.000000 -0.000000 0.000000 -1.433220 3.614088 14.251473 1.353819 -2.760832 -1.511531 0.077490 -2.027506 3.929704 1.010737 9.715488 1.701269 12.295190 4.825196 -2.907488 -22.642002 2.143124 3.929721 -57.870919 -6.313472 11.416524 4.436558 -33.012816 12.473253 3.958132 -3.086055 -9.978666 22.655413 -4.920076 0.421644 59.652599 -6.949266 11.738328 -11.313473 33.204844 5.984016 4.589360 1.377592 -8.114250 
1.059394 0.742591 1.067749 -54.080002 -0.641125 89.619865 -1.387144 -9.430669 -6.197933 -6.441837 -17.995522 15.935151 -8.966420 -2.397941 17.612146 0.000000 -0.000000 0.000000 -0.323694 -6.761326 -3.359581 -0.850891 -13.869097 19.962117 6.640059 -9.507131 18.141490 0.000000 -0.000000 0.000000 -1.898427 3.067458 9.639080 1.025775 -4.899908 -1.719394 0.558280 -2.481710 5.140225 -0.999384 9.345528 0.966682 14.552599 4.200098 -2.875905 -22.141923 1.986856 4.091124 -60.042956 -6.261777 11.598313 6.478169 -31.824898 4.712822 5.196212 -3.573114 -7.435928 21.177820 -6.220407 -0.246958 59.352806 -7.976381 11.664311 -7.626611 33.056686 5.622174 -8.614684 1.177226 -4.025966 
1.059521 0.734974 1.125817 -48.853937 -0.904473 90.907293 -0.676249 -5.544594 -6.436969 -5.521526 -11.562879 8.101859 -14.581749 0.988827 30.528212 0.000000 -0.000000 0.000000 -0.800702 -7.259265 -2.226079 -0.785080 -13.028732 10.777476 6.867222 -10.072577 34.685296 0.000000 -0.000000 0.000000 -1.280437 1.240568 6.633717 0.547726 -5.980188 -1.417917 0.478614 -2.827381 5.073349 -3.220235 6.606361 -0.401425 16.109524 5.691578 -1.002323 -22.170478 2.158795 4.222813 -60.439264 -5.590562 11.265806 6.782222 -32.504482 2.426343 4.541795 -4.614103 -7.176581 19.856541 -6.638942 0.260039 58.785944 -8.819563 11.969421 -6.270852 33.023198 6.634459 2.024483 -0.174621 -5.735860 
1.062451 0.730590 1.169717 -44.828379 -0.745191 91.667210 -0.857220 -3.929298 -6.481009 -4.858164 -9.138758 6.003956 -13.103418 1.257721 25.663435 0.000000 -0.000000 0.000000 -1.040293 -6.194825 -3.612195 -0.474928 -10.036455 10.528414 7.037141 -9.917881 32.871672 0.000000 -0.000000 0.000000 -0.136949 -0.015439 4.862674 0.331201 -5.999955 -0.952165 -0.177264 -2.822317 4.971553 -3.563330 6.100856 -0.480989 15.941219 5.577492 -0.041336 -22.320201 1.642817 3.718283 -59.817753 -5.736358 11.835293 5.172806 -32.758890 3.779940 3.484465 -5.277011 -6.127541 20.090910 -6.989087 0.690941 56.993460 -9.502706 12.261543 -4.438064 33.916814 7.389121 2.440082 0.676629 -5.017937 
1.062922 0.726058 1.200868 -40.364492 -0.121253 90.303133 -0.678917 -3.275935 -4.826917 -4.346505 -7.771054 6.295257 -10.836565 3.035645 23.017010 0.000000 -0.000000 0.000000 -0.820715 -5.906732 -3.260484 -0.333540 -8.683334 12.760024 7.116451 -8.805607 30.443949 0.000000 -0.000000 0.000000 0.929969 -0.825454 6.150597 0.423478 -6.224525 -1.274018 -0.408623 -2.929526 4.738081 -3.865377 5.835078 0.120113 15.945557 5.428792 -0.032728 -22.824912 0.403699 3.154209 -59.274140 -6.229341 12.598419 3.696699 -32.107044 6.220269 2.066252 -5.544974 -4.828045 19.979350 -6.763038 0.330050 56.082774 -10.909803 12.174895 -3.127829 33.559697 8.169057 1.451018 0.853651 -5.469712 
1.064320 0.723305 1.222260 -36.655754 -0.104628 89.368142 -0.959305 -2.635649 -3.986565 -4.169145 -6.641004 7.513870 -9.604473 4.895676 23.197605 0.000000 -0.000000 0.000000 -1.052671 -5.606492 -3.985022 -0.387124 -7.206884 15.483353 6.891802 -7.884321 28.363641 0.000000 -0.000000 0.000000 0.707759 -1.284571 7.459578 0.412910 -6.283097 -2.630253 -0.334140 -3.119507 5.360475 -4.043216 5.542562 -0.419853 16.067060 4.995472 0.551639 -23.193056 -0.303458 2.368371 -59.198583 -6.769625 13.118260 3.574250 -31.236060 7.757787 0.569561 -5.306933 -2.690020 19.794447 -6.697276 -0.429762 56.017253 -11.878333 12.102570 -3.018745 32.407380 8.753242 2.988501 0.127716 -5.240037 
1.065217 0.722173 1.233605 -32.704201 0.007466 89.323649 -0.747122 -2.822223 -3.961851 -4.264750 -6.841457 8.510571 -10.244125 4.831422 24.248876 0.000000 -0.000000 0.000000 -0.586052 -4.519467 -5.242024 -0.934408 -6.217522 16.550306 7.027980 -7.752724 27.655473 0.000000 -0.000000 0.000000 0.228608 -1.837818 7.462326 0.496819 -6.504897 -2.885884 -0.400385 -3.336367 5.523022 -4.015268 5.561583 -0.689165 16.021409 4.291164 1.049749 -23.633644 -0.325233 1.855287 -59.302974 -7.776714 13.376156 4.326025 -30.299406 6.921922 0.569688 -5.621524 -1.898805 20.569716 -7.233550 -0.764534 55.763880 -11.816399 12.221855 -3.760902 31.268763 8.803941 3.078668 -0.203595 -3.386076 
1.065147 0.720718 1.234469 -29.097661 0.161981 89.157991 -0.325333 -2.718676 -3.303389 -4.337771 -6.834736 8.605574 -10.626120 5.133090 24.691929 0.000000 -0.000000 0.000000 -0.346712 -3.825887 -5.955412 -0.706917 -4.970288 16.300363 8.445011 -6.971082 27.422096 0.000000 -0.000000 0.000000 -0.176813 -2.197263 7.142712 0.453534 -6.740673 -1.943334 -0.597626 -3.486179 5.183263 -3.892741 5.920274 -0.591405 15.884260 3.502900 1.257670 -24.053702 -0.266497 1.387070 -59.241300 -8.482281 13.553352 4.931256 -29.908097 5.191644 0.998254 -5.348145 -2.867583 21.403449 -7.657762 -1.043469 55.788001 -11.644455 12.530050 -4.565990 30.440703 8.540601 3.076782 -0.358655 -1.805381 
1.064961 0.719362 1.224849 -25.556363 0.443560 88.980299 0.258817 -2.365767 -2.459401 -4.148445 -6.193384 8.032995 -10.121849 5.665792 24.723094 0.000000 -0.000000 0.000000 0.206240 -3.207260 -5.882277 -0.484599 -3.822050 14.426525 9.726879 -5.589191 27.908502 0.000000 -0.000000 0.000000 -0.505671 -2.451807 7.017736 0.333457 -6.948026 -1.478429 -0.767766 -3.699753 5.028846 -4.126027 6.125000 -0.595273 15.904977 2.909234 1.538684 -23.972236 -0.124060 1.067153 -59.571255 -9.082770 13.467649 5.613568 -29.514564 3.779149 0.312882 -5.293214 -3.149281 21.777326 -8.336502 -1.648363 55.994072 -11.853362 12.635603 -4.658201 30.187567 8.625327 3.473857 -0.319337 -1.660306 
1.063784 0.717891 1.204179 -22.115214 0.688010 88.882270 1.014730 -1.744313 -1.572570 -4.068077 -5.922325 7.009975 -8.930525 6.030044 22.898945 0.000000 -0.000000 0.000000 0.634175 -2.868433 -6.124027 0.001961 -2.722118 13.052076 11.662807 -4.423701 27.786969 0.000000 -0.000000 0.000000 -1.222294 -2.578042 6.837121 0.382266 -7.193941 -1.575668 -0.674849 -3.871916 5.388233 -3.972736 6.328490 -0.783026 15.888406 2.119140 1.798608 -24.102378 -0.056586 0.825156 -59.405076 -9.566467 13.469121 5.939326 -29.095659 2.858572 0.478928 -5.367188 -3.151304 21.858035 -8.899785 -1.834108 56.272931 -12.208663 12.715035 -4.597863 30.637572 8.526238 3.674370 -0.325264 -2.715708 
1.062057 0.716345 1.172672 -18.594432 1.011643 88.924434 1.728325 -1.330161 -0.879323 -3.723283 -5.843665 5.887443 -7.122070 6.526557 20.634532 0.000000 -0.000000 0.000000 1.246354 -2.332407 -6.235396 0.672506 -0.187588 11.570801 12.388764 -2.972108 28.907142 0.000000 -0.000000 0.000000 -2.010277 -2.815816 6.279780 0.394318 -7.608218 -1.046209 -0.661120 -4.077369 5.541587 -4.121402 6.458174 -0.785053 15.945435 1.534909 2.028238 -23.660828 0.128338 0.515582 -59.555660 -9.750448 13.350027 6.160691 -28.713003 3.155481 0.088858 -4.826449 -1.929939 21.916205 -9.322075 -2.057411 56.812185 -12.555671 12.833486 -4.768701 31.363755 8.628860 4.614048 -0.394071 -3.556301 
1.061609 0.714989 1.130686 -14.623658 1.199038 88.977401 2.112667 -1.675333 -0.916617 -3.540824 -5.967568 5.753747 -5.266045 7.271610 22.042791 0.000000 -0.000000 0.000000 1.406564 -1.762049 -6.714472 1.433272 1.237880 12.097241 13.613815 -1.692349 30.025023 0.000000 -0.000000 0.000000 -2.835419 -3.100785 5.938928 0.526788 -8.084568 -0.543084 -0.765975 -4.501331 5.734624 -3.993002 6.748787 -0.727256 15.872430 0.875377 2.162852 -23.602872 0.263246 0.439858 -59.150279 -10.228390 13.448885 6.418863 -28.587592 2.717974 -0.743801 -4.334291 -1.721342 22.143954 -9.656395 -2.005515 57.114293 -12.170949 13.207177 -4.961991 31.737570 8.257641 4.907959 -0.313292 -4.332365 
1.061402 0.712635 1.078281 -10.245505 1.479719 88.468503 2.314560 -2.599863 -1.131729 -4.174063 -8.355311 9.557922 -4.717575 7.277509 20.800038 0.000000 -0.000000 0.000000 2.048511 -1.183796 -7.016000 1.127752 1.716429 15.491511 12.417250 -2.332962 29.108729 0.000000 -0.000000 0.000000 -3.514502 -3.331291 6.278372 0.659705 -8.619029 0.005947 -0.860093 -4.775237 5.828170 -4.169202 7.070134 -0.679945 15.826868 0.249511 2.385800 -23.281871 -0.562838 0.991840 -58.802147 -10.487384 13.549223 6.692825 -28.493254 2.401695 1.522414 -4.771390 -2.062873 22.452316 -9.349695 -2.319472 57.540973 -12.924726 13.233453 -5.252377 32.130883 8.592254 4.133026 0.126715 -4.373107 
1.061725 0.711174 1.019885 -6.196086 1.557757 86.207826 1.291163 -3.421884 -1.280761 -6.711229 -12.615070 21.072511 0.792052 7.874871 -5.133192 0.000000 -0.000000 0.000000 2.628320 2.046500 -6.509795 2.860900 2.684872 27.835339 6.025947 -2.015981 -1.484315 0.000000 -0.000000 0.000000 -4.485931 -3.150823 9.614297 0.994839 -8.897014 -1.002432 -1.200545 -4.735440 6.194822 -2.480304 9.253535 0.598547 14.311648 -1.882643 1.431542 -23.029992 -2.368784 1.554798 -57.889459 -10.111499 12.724631 7.028427 -28.504628 3.400441 2.796552 -4.336428 -4.249183 23.445784 -8.098570 -3.036327 57.977707 -14.150725 12.392391 -5.633295 31.911737 10.213045 2.385863 -0.397959 -5.608733 
